<?xml version="1.0" encoding="utf-8"?>
<!-- Generator: Adobe Illustrator 27.9.4, SVG Export Plug-In . SVG Version: 9.03 Build 54784)  -->
<svg version="1.1" xmlns="http://www.w3.org/2000/svg" xmlns:xlink="http://www.w3.org/1999/xlink" x="0px" y="0px"
	 viewBox="0 0 800 800" style="enable-background:new 0 0 800 800;" xml:space="preserve">
<style type="text/css">
	.st0{fill:#FFFFFF;stroke:#000000;stroke-width:42;stroke-miterlimit:10;}
</style>
<g id="Layer_2">
	<circle class="st0" cx="400" cy="400" r="377.75"/>
</g>
<g id="Layer_1">
	<path d="M600.98,199.11c1.96,1.97,3.45,4.25,4.45,6.67c1.01,2.42,1.56,5.08,1.57,7.86v0.06v124.2c0,11.43-9.27,20.7-20.7,20.7
		c-11.43,0-20.7-9.27-20.7-20.7v-74.23L456.04,373.24c-8.08,8.08-21.19,8.08-29.27,0c-8.08-8.08-8.08-21.19,0-29.27L536.33,234.4
		H462.1c-11.43,0-20.7-9.27-20.7-20.7s9.27-20.7,20.7-20.7h124.2c5.69,0,10.86,2.3,14.6,6.02L600.98,199.11z"/>
	<path d="M373.24,456.04L263.67,565.6h74.23c11.43,0,20.7,9.27,20.7,20.7c0,11.43-9.27,20.7-20.7,20.7H213.71h-0.08
		c-5.26-0.02-10.51-2.02-14.53-6.02l-0.09-0.09c-1.96-1.97-3.45-4.25-4.45-6.67c-1.01-2.44-1.57-5.12-1.57-7.92V462.1
		c0-11.43,9.27-20.7,20.7-20.7s20.7,9.27,20.7,20.7v74.23l109.56-109.56c8.08-8.08,21.19-8.08,29.27,0
		C381.32,434.85,381.32,447.95,373.24,456.04z"/>
</g>
</svg>
