<?xml version="1.0" encoding="utf-8"?>
<!-- Generator: Adobe Illustrator 27.9.4, SVG Export Plug-In . SVG Version: 9.03 Build 54784)  -->
<svg version="1.1" id="Layer_1" xmlns="http://www.w3.org/2000/svg" xmlns:xlink="http://www.w3.org/1999/xlink" x="0px" y="0px"
	 viewBox="0 0 768 2204.49" style="enable-background:new 0 0 768 2204.49;" xml:space="preserve">
<style type="text/css">
	.st0{fill:#222822;}
	.st1{fill:#FDFDFD;}
</style>
<path class="st0" d="M769.64,692.55c-33.72,21.79-68.98,40.57-106.18,55.76c-54.25,22.15-110.9,34.84-168.54,43.83
	c-36.32,5.66-72.79,9.35-109.61,8.17c-3.45-0.11-5.14,1.96-7.13,3.93c-73.5,72.83-159.67,124.01-259.39,151.95
	c-37.6,10.54-76.14,16.26-114.68,21.92c-3.4,0.5-4.62-0.16-4.56-3.95c0.23-14.81,0.16-29.62,0.03-44.43
	c-0.03-2.83,0.54-3.94,3.65-4.2c18.69-1.59,37.02-5.17,54.36-12.46c27.39-11.52,47.96-29.93,56.69-59.28
	c4.27-14.35-1.53-26.86-15.01-33.33c-18.47-8.86-38.37-10.33-58.42-10.28c-12.47,0.03-24.93,0.68-37.39,1.29
	c-3.06,0.15-3.93-0.61-3.9-3.71c0.15-14.63,0.07-29.26,0.07-43.89c0-1.78-0.31-3.56,2.45-3.72c38.71-2.2,77.45-3.71,114.2,11.88
	c45.79,19.42,62.3,65.08,41.29,112.66c-0.66,1.49-0.91,3.16-1.36,4.75c1.51-0.4,3.08-0.64,4.51-1.22
	c55.74-22.64,106.56-53.35,151.93-92.97c0.97-0.84,1.61-2.06,2.4-3.1c-1.15-0.41-2.27-0.92-3.45-1.2
	c-78.43-18.52-134.45-64.32-167.34-138.08c-2.08-4.67-4.48-5.97-9.54-5.8c-44.88,1.45-89.05-1.66-130.44-21.66
	c-3.59-1.73-4.83-3.6-4.77-7.57c0.25-16.41,0.21-32.83,0.03-49.24c-0.04-4.08,1.01-4.05,3.94-2.08
	c34.33,23.08,72.81,30.29,113.34,29.65c2.11-0.03,4.41,0.62,3.03-3.24C94.55,522.3,68.29,452.09,29.34,387.49
	c-6.55-10.86-14.31-20.97-23.33-29.86c-4.84-4.77-6.75-9.56-6.53-16.33c0.5-15.86,0.31-31.76,0.07-47.63
	c-0.07-4.75,1.28-4.37,4.58-2.52c33.69,18.89,56.67,48.11,75.44,80.66c34.91,60.54,60.27,125.41,83.73,191.06
	c1.5,4.19,2.95,8.4,4.52,12.56c7.02,18.54,7.08,18.75,26.53,15.17c74.99-13.8,143.26-42.6,203.13-90.62
	c23.93-19.2,40.39-44.47,58.79-68.26c23.24-30.06,44.85-61.26,66.35-92.56c2.33-3.4,2.08-4.8-1.42-7.3
	c-24.53-17.45-48.6-35.54-73.27-52.78c-15.67-10.94-32.95-19.07-51-25.45c-1.26-0.45-2.66-0.5-3.99-0.73
	c0.27,1.31,0.44,2.66,0.83,3.93c12.86,41.1,22.22,82.79,16.4,126.16c-4.61,34.39-13.39,68.18-44.86,88.02
	c-50.23,31.68-103.14,34.28-154.77,3.87c-50.99-30.03-76.56-76.56-68.97-135.49c8.01-62.28,46.57-103.93,102.85-129.6
	c15.76-7.19,32.34-11.99,49.41-15.04c1.12-0.2,2.18-0.78,3.27-1.19c-0.73-0.98-1.35-2.07-2.2-2.93c-26.96-26.93-57.4-49-91.84-65.4
	c-2.3-1.09-5.14-1.32-7.75-1.43c-66.74-2.67-130.17,11.23-190.91,38.41c-3.86,1.73-4.94,1.78-4.85-2.98
	c0.28-15.34,0.24-30.69,0-46.03c-0.06-3.68,1.18-5.17,4.51-6.46c23.59-9.13,47.54-17.06,72.26-22.52c1.38-0.3,2.67-1.04,4-1.57
	c-1.32-0.47-2.6-1.06-3.95-1.39C52.76,75.51,28.79,72.2,4.61,70.52c-3.77-0.26-5.17-1-5.08-5.11c0.29-13.02,0.37-26.06-0.03-39.07
	c-0.15-4.82,1.63-5.31,5.73-5.36c46.45-0.54,90.55,11.23,134.18,25.46c23.34,7.61,46.54,15.6,69.25,24.99
	c8.47,3.5,17.62,2.04,26.45,2.67c79.08,5.6,157.75,15.89,236.91,20.7c95.06,5.78,185.86-10.07,271.91-51.45
	c8.72-4.19,17.15-8.98,25.71-13.5c0,19.63,0,39.26,0,58.88c-1.78,0.53-3.66,0.82-5.32,1.61c-81.8,38.81-168,57.85-258.47,56.69
	c-65.1-0.83-129.73-8.72-194.46-14.84c-1.25-0.12-2.54,0.1-3.81,0.17c0.83,0.88,1.59,1.84,2.51,2.63
	c18.99,16.36,36.12,34.45,50.55,55c1.67,2.38,3.52,3.52,6.46,3.92c33.66,4.53,64.57,16.78,94.04,33.31
	c27.5,15.42,51.32,35.96,76.67,54.38c13.72,9.96,13.7,9.91,24.34-2.85c40.2-48.17,91.54-80.3,149.09-103.34
	c18.95-7.59,38.15-14.58,58.39-18.13c0,17.49,0,34.97,0,52.46c-13.54,3.14-26.57,7.89-39.41,13.07
	c-48.47,19.53-92.29,45.97-126.84,86.13c-2.97,3.45-3.32,4.84,1.52,6.56c25.17,8.96,51.07,13.82,77.72,15.09
	c29.61,1.41,58.47-3.27,87.01-10.58c0,17.49,0,34.97,0,52.46c-65.88,16.22-130.35,11.68-193.36-13.34c-3.8-1.51-5.34-0.92-7.51,2.38
	c-33.31,50.68-66.95,101.6-107.46,146.46c-69.22,76.64-160.19,114.48-260.01,133.11c-4.6,0.86-5.67,1.35-3.24,5.93
	c34.38,64.87,91.58,92.71,161.44,100.24c3.04,0.33,4.53-1.45,6.21-3.3c19.71-21.6,39.84-42.84,59.07-64.86
	c54.76-62.71,113.34-120.99,185.08-164.57c49.3-29.95,100.71-53.29,159.77-54.26c0,17.13,0,34.26,0,51.39
	c-20.33-0.06-40.03,3.74-59.12,10.43c-56.88,19.94-105.28,54.05-150.91,92.33c-46.48,39-84.59,86.21-125.53,130.63
	c-0.67,0.73-1.03,1.74-1.54,2.62c1.35,0.08,2.72,0.33,4.06,0.21c27.32-2.45,54.38-6.71,81.39-11.48
	c90.76-16.01,174.66-48.19,248.3-104.81c0.83-0.64,1.6-2.75,3.34-1.1C769.64,651.15,769.64,671.85,769.64,692.55z M360.84,356.8
	c-1.62-38.31-10.36-74.96-25.75-110.07c-1.46-3.32-3.47-4.2-6.94-4.12c-27.57,0.65-53.73,7.13-77.43,21.13
	c-33.08,19.56-56.5,47.36-59.19,86.87c-3.93,57.64,51.66,103.09,110.12,91.83c23.25-4.48,44.02-12.55,51.77-38.29
	C358.07,388.7,360.99,373.02,360.84,356.8z"/>
<path class="st0" d="M769.64,1468.73c-2.39,0.98-3.33-1.3-4.57-2.32c-20.09-16.37-38.98-33.96-54.76-54.67
	c-0.79-1.04-1.96-1.79-2.95-2.67c-0.3,0.78-0.68,1.55-0.88,2.36c-21.52,88.77-76.53,150.07-156.87,189.89
	c-72.33,35.85-149.85,51.46-229.89,55.63c-59.54,3.1-119.01,2.59-177.92-8.37c-47.78-8.88-93.63-24.11-138.4-42.82
	c-2.9-1.21-3.9-2.68-3.86-5.86c0.19-15.34,0.27-30.69-0.02-46.03c-0.09-4.95,0.79-5.56,5.33-3.49
	c48.75,22.23,99.03,39.96,151.99,48.91c59.75,10.1,119.94,9.86,180.12,5.18c69.45-5.4,136.56-20.55,198.6-53.34
	c60.58-32.02,103.18-79.6,120.06-147.32c8.44-33.85,0.89-67.22-6.23-100.49c-12.62-58.93-32.84-115.78-47.02-174.26
	c-1.97-8.13-3.48-16.39-4.91-24.64c-0.62-3.59-1.28-4.85-5.22-2.86c-43.59,22.04-77.57,54.52-104.1,95.24
	c-2.21,3.4-1.07,4.53,1.59,6.57c36.97,28.3,64.39,63.21,72.3,110.33c9.37,55.78-11.55,101.1-51.33,138.7
	c-38.3,36.18-85.76,53.15-136.51,62.34c-65.48,11.86-126.32-3.47-183.98-33.6c-46.42-24.26-93.5-46.98-141.82-67.13
	c-14.45-6.03-29.46-9.58-45.24-8.7c-2.99,0.17-3.59-0.8-3.57-3.52c0.1-14.63,0.17-29.26-0.04-43.89c-0.05-3.59,1.42-3.91,4.38-3.99
	c27.17-0.66,52.17,7.54,76.78,18.03c49.81,21.24,97.61,46.59,146.27,70.21c77.67,37.71,154.78,33.86,228.23-11.28
	c36.18-22.23,60.46-54.34,57.48-99.95c-2.35-35.98-22.87-62.07-49.9-83.78c-3.54-2.85-3.63,1.44-4.47,2.9
	c-21.83,37.86-47.92,72.06-82.8,99.05c-66.75,51.66-160.75,56.39-227.36,10.27c-34.13-23.63-54.48-55.58-49.93-98.75
	c3.81-36.1,24.98-62.23,53.09-83.12c32.69-24.29,70.92-32.73,110.38-37.56c62.12-7.61,120.26,6.14,176.14,32.29
	c3.37,1.58,4.83,1.41,6.98-1.97c34.35-54.11,80.35-94.95,138.96-121.17c4.15-1.86,5.26-3.92,4.93-8.34
	c-1.76-23.65,0.3-47.05,6.04-70.05c1.34-5.35,0.46-5.9-4.64-4.59c-50.56,13.06-97.99,34.23-145.29,55.78
	c-69.47,31.64-140.54,58.67-215.68,73.64c-60.24,12-120.89,9.78-181.57,4.34c-14.54-1.3-29.02-3.29-43.56-4.76
	c-3.3-0.33-4.51-1.35-4.46-4.87c0.21-14.45,0.21-28.91,0-43.36c-0.05-3.75,0.85-4.07,4.43-3.59c55.89,7.44,111.93,12.43,168.37,8.25
	c60.43-4.48,117.46-22.83,173.84-43.6c52.13-19.2,101.49-44.92,153.09-65.4c37.32-14.81,75.43-26.8,115.03-33.68
	c3.93-0.68,6.53-2.24,8.86-5.72c36-53.94,87.29-88.55,145.26-114.62c0.29-0.13,0.8,0.24,1.21,0.38c0,18.56,0,37.11,0,55.67
	c-27.23,13.25-51.74,30.47-73.95,51c-0.69,0.64-1.06,1.61-1.58,2.43c0.82,0.11,1.66,0.38,2.47,0.31c24.33-2.12,48.7-1.58,73.07-1.28
	c0,17.13,0,34.26,0,51.39c-37.42-1.6-74.68,0.35-111.81,5.19c-3.03,0.39-4.71,1.37-5.83,4.31c-8.01,20.97-12.4,42.62-12.82,65.09
	c-0.08,4.04,0.49,5.12,4.91,3.86c41.09-11.68,82.87-16.69,125.55-12.08c0,17.13,0,34.26,0,51.39
	c-40.27-5.06-79.49,0.13-118.17,11.61c-5.37,1.59-6.58,3.32-5.66,8.97c8.54,52.56,27.88,102.22,40.7,153.62
	c0.22,0.9,0.92,1.68,1.4,2.51c0.42-0.98,0.9-1.93,1.24-2.93c8.52-24.75,20.28-47.85,35.48-69.13c12.83-17.98,26.33-35.4,45.01-47.9
	c0,24.62,0,49.25,0,73.87c-0.54,0.35-1.25,0.58-1.6,1.07c-21.34,29.94-36.05,62.68-39.81,99.53
	c-4.24,41.62,10.76,75.99,41.41,103.88C769.64,1423.76,769.64,1446.24,769.64,1468.73z M297.75,1189.05
	c-14.83-0.06-29.54,1.37-44.16,3.63c-33.82,5.23-65.8,14.55-89.29,41.83c-23.81,27.65-20.18,58.72,9.25,80.35
	c41.99,30.86,106.85,33.19,153.03,5.64c39.89-23.8,66.68-59.33,89.08-98.9c1.74-3.07-0.09-3.58-2.1-4.48
	C376.69,1200.57,338.57,1189.23,297.75,1189.05z"/>
<path class="st0" d="M769.64,2030.79c-36.31,4.63-71.96-0.36-106.88-9.42c-51.61-13.38-99.23-36.11-143.18-66.31
	c-16.94-11.64-30.66-26.57-41.58-44.04c-1.2-1.92-2.03-4.07-5.01-4.14c-35.87-0.88-71.65-1.02-106.28,10.53
	c-9.39,3.13-18.01,7.72-25.22,14.59c-8.93,8.51-9.83,17.57-2.34,28.2c13.36,18.96,33.63,26.05,54.95,30.96
	c27.52,6.34,55.95,5.84,83.65,10.69c28.78,5.04,55.39,14.85,72.64,40.33c30.64,45.26,8.22,105.78-46.07,124.56
	c-39.92,13.8-81.4,11.97-122.75,11.25c-118.01-2.04-209.97-56.14-285.71-142.86c-5.98-6.85-12.37-13.34-18.3-20.23
	c-2.67-3.1-4.41-3.19-7.58-0.45c-20.79,17.98-43.02,34.06-66.19,48.83c-1.12,0.72-2.43,1.14-3.65,1.7
	c-0.17-1.35-0.49-2.71-0.49-4.06c-0.03-17.31,0.06-34.61-0.1-51.92c-0.03-3.18,0.88-5.09,3.51-7.01
	c8.92-6.51,17.51-13.47,26.39-20.05c3.27-2.42,2.84-3.64-0.58-5.16c-6.5-2.9-12.64-6.99-19.41-8.79
	c-8.18-2.17-10.65-6.06-10.06-14.43c0.88-12.61,0.38-25.32,0.14-37.99c-0.07-3.95,1.03-4.31,4.52-3.34
	c22.63,6.28,43.99,15.42,63.58,28.4c3.64,2.41,5.44,1.85,8.34-1.05c34.32-34.35,64.65-72.32,97.91-107.62
	c18.12-19.23,37.22-37.42,58.1-53.66c1.08-0.84,1.99-1.89,2.98-2.85c-1.48-0.18-2.97-0.58-4.43-0.49
	c-43.45,2.64-86.96,4.83-130.15-2.28c-32.64-5.37-65.01-12.35-97.52-18.55c-2.57-0.49-3.35-1.61-3.32-4.25
	c0.14-14.99,0.17-29.98-0.01-44.96c-0.04-3.61,0.84-3.84,4.2-3.14c43.53,9.06,86.7,21.1,131.27,23.08
	c69.23,3.09,138.36,0.5,205.66-17.9c19.3-5.28,37.07-16.22,55.44-24.8c67.65-31.59,139.37-50.15,211.71-66.94
	c53.36-12.38,107.68-18.26,161.8-25.54c0,17.13,0,34.26,0,51.39c-36.83,5.19-73.98,8.76-110.43,15.9
	c-86.51,16.96-171.79,38.34-252.2,76.11c-61.56,28.92-120.29,62.02-170.47,108.61c-44.38,41.21-80.3,90.34-123.43,132.73
	c-2.32,2.28-0.47,3.34,0.79,4.72c7.92,8.7,15.93,17.32,23.76,26.11c64.25,72.15,141.18,119,240.58,121.29
	c35.6,0.82,71.31,2.96,106.15-7.05c10.49-3.01,19.83-8.29,24.96-18.64c9.87-19.93-0.25-37.89-25.62-45.29
	c-23.96-7-48.98-6.41-73.45-9.76c-32.09-4.39-63.18-11.63-89.43-31.94c-25.75-19.93-42.06-45.14-36.66-79.17
	c4.62-29.1,24.99-46.53,49.84-58.79c36.28-17.9,75.67-20.13,115.18-20.54c6.51-0.07,7.53-1.39,6.77-7.88
	c-4.47-37.82,2.11-73.18,30.04-100.8c35.6-35.2,80.61-46.04,128.59-39.85c67,8.64,100.33,41.41,113.67,92.58
	c12.85,49.31-15.78,99.37-64.55,111.91c-36.07,9.27-72.56,5.07-108.96,2.34c-1.55-0.12-3.1-0.17-4.64-0.26
	c1.24,1.16,2.33,2.56,3.75,3.45c65.99,41.36,135.86,69.58,215.78,63.59C769.64,1997.24,769.64,2014.01,769.64,2030.79z
	 M603.4,1864.78c10.5,0,21.08,0.8,31.48-0.19c15.95-1.51,31.76-4.17,39.97-20.99c10.97-22.46,2.25-53.43-19.68-69.44
	c-33.04-24.12-94.18-23.03-126.51,2.27c-20.59,16.11-30.31,55.91-19.45,79.32c0.82,1.76,1.93,2.25,3.68,2.38
	C543.08,1860.44,573.07,1865.11,603.4,1864.78z"/>
<path class="st1" d="M769.64,1980.47c-79.92,5.99-149.79-22.22-215.78-63.59c-1.41-0.89-2.51-2.29-3.75-3.45
	c1.55,0.08,3.1,0.14,4.64,0.26c36.4,2.73,72.89,6.93,108.96-2.34c48.76-12.53,77.4-62.59,64.55-111.91
	c-13.34-51.17-46.68-83.94-113.67-92.58c-47.98-6.19-92.99,4.65-128.59,39.85c-27.93,27.62-34.51,62.98-30.04,100.8
	c0.77,6.49-0.25,7.81-6.77,7.88c-39.51,0.42-78.9,2.64-115.18,20.54c-24.85,12.26-45.23,29.69-49.84,58.79
	c-5.4,34.03,10.91,59.23,36.66,79.17c26.25,20.31,57.33,27.55,89.43,31.94c24.47,3.35,49.49,2.76,73.45,9.76
	c25.37,7.41,35.5,25.36,25.62,45.29c-5.13,10.35-14.47,15.63-24.96,18.64c-34.84,10.01-70.54,7.86-106.15,7.05
	c-99.4-2.28-176.34-49.14-240.58-121.29c-7.82-8.79-15.84-17.4-23.76-26.11c-1.26-1.38-3.1-2.45-0.79-4.72
	c43.13-42.4,79.05-91.53,123.43-132.73c50.18-46.59,108.91-79.7,170.47-108.61c80.41-37.77,165.69-59.16,252.2-76.11
	c36.45-7.14,73.6-10.71,110.43-15.9C769.64,1754.22,769.64,1867.34,769.64,1980.47z"/>
<path class="st1" d="M769.64,460.23c-59.06,0.97-110.47,24.31-159.77,54.26c-71.75,43.59-130.32,101.86-185.08,164.57
	c-19.23,22.02-39.36,43.26-59.07,64.86c-1.68,1.85-3.18,3.62-6.21,3.3c-69.86-7.53-127.07-35.37-161.44-100.24
	c-2.43-4.58-1.35-5.08,3.24-5.93c99.81-18.63,190.78-56.47,260.01-133.11c40.52-44.86,74.16-95.78,107.46-146.46
	c2.17-3.3,3.71-3.89,7.51-2.38c63.01,25.02,127.48,29.56,193.36,13.34C769.64,401.7,769.64,430.97,769.64,460.23z"/>
<path class="st1" d="M769.64,630.45c-1.74-1.65-2.51,0.46-3.34,1.1c-73.64,56.62-157.54,88.8-248.3,104.81
	c-27.01,4.76-54.07,9.03-81.39,11.48c-1.34,0.12-2.71-0.13-4.06-0.21c0.51-0.88,0.87-1.9,1.54-2.62
	c40.94-44.42,79.05-91.64,125.53-130.63c45.62-38.28,94.02-72.39,150.91-92.33c19.09-6.69,38.79-10.49,59.12-10.43
	C769.64,551.23,769.64,590.84,769.64,630.45z"/>
<path class="st1" d="M769.64,319.98c-28.54,7.31-57.4,11.98-87.01,10.58c-26.65-1.27-52.55-6.13-77.72-15.09
	c-4.83-1.72-4.48-3.11-1.52-6.56c34.54-40.16,78.37-66.6,126.84-86.13c12.84-5.18,25.87-9.93,39.41-13.07
	C769.64,246.47,769.64,283.22,769.64,319.98z"/>
<path class="st1" d="M769.64,1122.92c-18.68,12.5-32.18,29.93-45.01,47.9c-15.2,21.28-26.96,44.39-35.48,69.13
	c-0.34,1-0.83,1.96-1.24,2.93c-0.48-0.83-1.18-1.61-1.4-2.51c-12.82-51.4-32.16-101.06-40.7-153.62c-0.92-5.65,0.29-7.37,5.66-8.97
	c38.68-11.48,77.91-16.67,118.17-11.61C769.64,1085.1,769.64,1104.01,769.64,1122.92z"/>
<path class="st1" d="M769.64,1014.79c-42.68-4.61-84.45,0.4-125.55,12.08c-4.42,1.26-4.98,0.18-4.91-3.86
	c0.42-22.48,4.81-44.12,12.82-65.09c1.12-2.94,2.8-3.91,5.83-4.31c37.13-4.84,74.38-6.79,111.81-5.19
	C769.64,970.54,769.64,992.67,769.64,1014.79z"/>
<path class="st1" d="M769.64,1401.28c-30.65-27.9-45.66-62.26-41.41-103.88c3.76-36.85,18.47-69.59,39.81-99.53
	c0.35-0.49,1.06-0.72,1.6-1.07C769.64,1264.96,769.64,1333.12,769.64,1401.28z"/>
<path class="st1" d="M769.64,897.03c-24.37-0.3-48.74-0.84-73.07,1.28c-0.81,0.07-1.65-0.2-2.47-0.31c0.52-0.82,0.9-1.79,1.58-2.43
	c22.22-20.53,46.72-37.75,73.95-51C769.64,862.06,769.64,879.54,769.64,897.03z"/>
<path class="st1" d="M360.84,356.8c0.14,16.22-2.77,31.9-7.42,47.35c-7.74,25.74-28.51,33.81-51.77,38.29
	c-58.46,11.26-114.05-34.19-110.12-91.83c2.69-39.52,26.1-67.31,59.19-86.87c23.7-14.01,49.86-20.48,77.43-21.13
	c3.48-0.08,5.49,0.8,6.94,4.12C350.48,281.84,359.23,318.49,360.84,356.8z"/>
<path class="st1" d="M297.75,1189.05c40.82,0.18,78.94,11.52,115.81,28.07c2,0.9,3.84,1.41,2.1,4.48
	c-22.4,39.57-49.19,75.1-89.08,98.9c-46.18,27.55-111.04,25.22-153.03-5.64c-29.43-21.63-33.06-52.7-9.25-80.35
	c23.49-27.28,55.47-36.6,89.29-41.83C268.21,1190.42,282.92,1188.99,297.75,1189.05z"/>
<path class="st1" d="M603.4,1864.78c-30.33,0.33-60.32-4.35-90.5-6.64c-1.75-0.13-2.86-0.62-3.68-2.38
	c-10.86-23.41-1.14-63.21,19.45-79.32c32.33-25.3,93.46-26.39,126.51-2.27c21.93,16.01,30.65,46.98,19.68,69.44
	c-8.22,16.82-24.03,19.48-39.97,20.99C624.48,1865.58,613.9,1864.78,603.4,1864.78z"/>
</svg>
