<?xml version="1.0" encoding="utf-8"?>
<!-- Generator: Adobe Illustrator 27.9.4, SVG Export Plug-In . SVG Version: 9.03 Build 54784)  -->
<svg version="1.1" id="Layer_1" xmlns="http://www.w3.org/2000/svg" xmlns:xlink="http://www.w3.org/1999/xlink" x="0px" y="0px"
	 viewBox="0 0 800 800" style="enable-background:new 0 0 800 800;" xml:space="preserve">
<style type="text/css">
	.st0{fill:#FFFFFF;stroke:#000000;stroke-width:42;stroke-miterlimit:10;}
</style>
<g id="Layer_2_00000033356879998502473510000016174811651294573481_">
	<circle class="st0" cx="400" cy="400" r="377.8"/>
</g>
<path d="M426.7,373.2c-2-2-3.5-4.2-4.5-6.7c-1-2.4-1.6-5.1-1.6-7.9v-0.1V234.4c0-11.4,9.3-20.7,20.7-20.7s20.7,9.3,20.7,20.7v74.2
	l109.6-109.6c8.1-8.1,21.2-8.1,29.3,0c8.1,8.1,8.1,21.2,0,29.3L491.4,337.9h74.2c11.4,0,20.7,9.3,20.7,20.7s-9.3,20.7-20.7,20.7
	H441.4C435.7,379.3,430.6,377,426.7,373.2L426.7,373.2z"/>
<path d="M199,571.7l109.6-109.6h-74.2c-11.4,0-20.7-9.3-20.7-20.7s9.3-20.7,20.7-20.7h124.2h0.1c5.3,0,10.5,2,14.5,6l0.1,0.1
	c2,2,3.5,4.2,4.5,6.7c1,2.4,1.6,5.1,1.6,7.9v124.2c0,11.4-9.3,20.7-20.7,20.7s-20.7-9.3-20.7-20.7v-74.2L228.3,600.9
	c-8.1,8.1-21.2,8.1-29.3,0C191,592.9,191,579.8,199,571.7z"/>
</svg>
